<svg width="39" height="32" viewBox="0 0 39 32" fill="none" xmlns="http://www.w3.org/2000/svg">
<g clip-path="url(#clip0_2_2)">
<path d="M24.5033 3.89298C25.5513 3.91793 26.4495 3.04462 26.4745 1.97171C26.4994 0.873841 25.676 0.0254881 24.5781 0.000536585C23.5052 -0.024415 22.6319 0.823937 22.607 1.89685C22.582 2.94482 23.4553 3.86803 24.5033 3.89298Z" fill="url(#paint0_linear_2_2)"/>
<path d="M30.2918 26.9481H32.3129C32.8119 26.9481 33.2111 26.5489 33.2111 26.0498V5.88898C33.2111 5.38995 32.8119 4.99072 32.3129 4.99072H30.2918C29.7928 4.99072 29.3936 5.38995 29.3936 5.88898V26.0498C29.3936 26.5489 29.7928 26.9481 30.2918 26.9481Z" fill="url(#paint1_linear_2_2)"/>
<path d="M30.2918 3.86793H38.1016C38.6007 3.86793 38.9999 3.4687 38.9999 2.96967V0.923646C38.9999 0.424615 38.6007 0.0253906 38.1016 0.0253906H30.2918C29.7928 0.0253906 29.3936 0.424615 29.3936 0.923646V2.94472C29.3936 3.4687 29.7928 3.86793 30.2918 3.86793Z" fill="url(#paint2_linear_2_2)"/>
<path d="M26.4993 26.0501V5.88922C26.4993 5.39019 26.1001 4.99096 25.601 4.99096H23.5799C23.0809 4.99096 22.6817 5.39019 22.6817 5.88922V6.3134C22.6817 6.33835 22.6817 6.3633 22.6817 6.38825V9.5571C22.3823 14.747 18.1904 18.6145 18.1904 18.6145L12.3767 2.19639C12.1521 1.79717 11.5783 1.79717 11.3537 2.19639L3.76842 23.5799L1.49783 22.9561C1.14851 22.8563 0.79919 23.0559 0.724335 23.4052L0.025692 25.9253C-0.0741142 26.2746 0.125498 26.624 0.47482 26.6988L2.5458 27.2727L1.57269 30.3916C1.44793 30.7659 1.7224 31.1402 2.12162 31.1402H4.9661C5.21561 31.1402 5.44018 30.9655 5.51503 30.716L6.38834 27.2727C18.1655 27.2727 22.1577 19.8621 22.6817 18.7642V26.0501C22.6817 26.5491 23.0809 26.9483 23.5799 26.9483H25.601C26.0751 26.9483 26.4993 26.5491 26.4993 26.0501ZM7.4363 23.6547L11.8777 11.2788L15.296 21.0099C12.3518 23.1806 9.0831 23.6547 7.4363 23.6547Z" fill="url(#paint3_linear_2_2)"/>
</g>
<defs>
<linearGradient id="paint0_linear_2_2" x1="24.4942" y1="31.0884" x2="24.5244" y2="11.1688" gradientUnits="userSpaceOnUse">
<stop stop-color="white"/>
<stop offset="0.9852" stop-color="white"/>
</linearGradient>
<linearGradient id="paint1_linear_2_2" x1="31.2844" y1="31.0986" x2="31.3147" y2="11.179" gradientUnits="userSpaceOnUse">
<stop stop-color="#E5E5E5"/>
<stop offset="0.9852" stop-color="white"/>
</linearGradient>
<linearGradient id="paint2_linear_2_2" x1="34.1556" y1="31.103" x2="34.1858" y2="11.1834" gradientUnits="userSpaceOnUse">
<stop stop-color="white"/>
<stop offset="0.9852" stop-color="white"/>
</linearGradient>
<linearGradient id="paint3_linear_2_2" x1="13.224" y1="31.0714" x2="13.2543" y2="11.1518" gradientUnits="userSpaceOnUse">
<stop stop-color="white"/>
<stop offset="0.9852" stop-color="#F3FAFF"/>
</linearGradient>
<clipPath id="clip0_2_2">
<rect width="39" height="32" fill="white"/>
</clipPath>
</defs>
</svg>
